<svg display="none" xmlns="http://www.w3.org/2000/svg">
   <symbol width="15" height="15" viewBox="0 0 15 15" id="search">
      <path
         d="M14.5001 13.7929L10.7241 10.0169C11.6314 8.92758 12.0839 
         7.53038 11.9873 6.11596C11.8908 4.70153 11.2526 3.37879 10.2057 
         2.42288C9.15867 1.46698 7.78347 0.951515 6.36612 0.983723C4.94877 
         1.01593 3.5984 1.59333 2.59593 2.59581C1.59345 3.59828 1.01605 
         4.94865 0.983845 6.366C0.951637 7.78335 1.4671 9.15855 2.423 
         10.2055C3.37891 11.2525 4.70165 11.8907 6.11608 11.9872C7.5305 
         12.0838 8.9277 11.6313 10.017 10.7239L13.7931 14.5L14.5001 
         13.7929ZM2.00012 6.5C2.00012 5.60998 2.26404 4.73995 2.75851 
         3.99993C3.25297 3.25991 3.95578 2.68313 4.77804 2.34254C5.60031 
         2.00194 6.50511 1.91283 7.37802 2.08646C8.25094 2.2601 9.05276 
         2.68868 9.6821 3.31802C10.3114 3.94735 10.74 4.74918 10.9137 
         5.62209C11.0873 6.495 10.9982 7.3998 10.6576 8.22207C10.317
         9.04434 9.7402 9.74714 9.00018 10.2416C8.26016 10.7361 7.39013 
         11 6.50012 11C5.30705 10.9987 4.16323 10.5241 3.3196 
         9.68052C2.47597 8.83689 2.00144 7.69306 2.00012 6.5Z"
         fill="#2A254B" />
   </symbol>
   <symbol width="14" height="14" viewBox="0 0 14 14" id="user">
      <path
         d="M7 3C6.50555 3 6.0222 3.14662 5.61108 3.42133C5.19995 
         3.69603 4.87952 4.08648 4.6903 4.54329C4.50108 5.00011 4.45158 
         5.50277 4.54804 5.98773C4.6445 6.47268 4.88261 6.91814 5.23224 
         7.26777C5.58187 7.6174 6.02733 7.8555 6.51228 7.95196C6.99723 
         8.04843 7.4999 7.99892 7.95671 7.8097C8.41353 7.62048 8.80397 
         7.30005 9.07868 6.88893C9.35338 6.4778 9.5 5.99445 9.5 5.5C9.5 
         4.83696 9.23661 4.20107 8.76777 3.73223C8.29893 3.26339 7.66304 
         3 7 3ZM7 7C6.70333 7 6.41332 6.91203 6.16665 6.7472C5.91997 
         6.58238 5.72772 6.34811 5.61418 6.07403C5.50065 5.79994 5.47095
          5.49834 5.52882 5.20736C5.5867 4.91639 5.72956 4.64912 5.93934 
          4.43934C6.14912 4.22956 6.4164 4.0867 6.70737 4.02882C6.99834 
          3.97094 7.29994 4.00065 7.57403 4.11418C7.84812 4.22771 8.08239 
          4.41997 8.24721 4.66664C8.41203 4.91332 8.5 5.20333 8.5 5.5C8.49955 
          5.89769 8.34137 6.27896 8.06017 6.56016C7.77896 6.84137 7.39769 6.99955 7 7Z"
         fill="#2A254B" />
      <path
         d="M7 0C5.61553 0 4.26216 0.410543 3.11101 1.17971C1.95987 1.94888 
         1.06266 3.04213 0.532846 4.32122C0.00303298 5.6003 -0.13559 7.00776 
         0.134506 8.36563C0.404603 9.7235 1.07129 10.9708 2.05026 11.9497C3.02922 
         12.9287 4.2765 13.5954 5.63437 13.8655C6.99224 14.1356 8.3997 13.997 9.67879
          13.4672C10.9579 12.9373 12.0511 12.0401 12.8203 10.889C13.5895 9.73785 14 8.38447 14 7C13.9979 
          5.14413 13.2597 3.36486 11.9474 2.05256C10.6351 0.74026 8.85588 0.00209095 7 0ZM4 
          12.1882V11.5C4.00044 11.1023 4.15862 10.721 4.43983 10.4398C4.72104 10.1586 5.10231 
          10.0004 5.5 10H8.5C8.89769 10.0004 9.27897 10.1586 9.56018 10.4398C9.84139 10.721 
          9.99957 11.1023 10 11.5V12.1882C9.08959 12.7199 8.05426 13 7 13C5.94574 13 4.91042 
          12.7199 4 12.1882ZM10.9963 11.4629C10.9863 10.807 10.7191 10.1813 10.2521 9.72061C9.7852 
          9.25991 9.15595 9.00112 8.5 9H5.5C4.84405 9.00112 4.2148 9.25991 3.74786 9.72061C3.28093 
          10.1813 3.01369 10.807 3.00375 11.4629C2.09703 10.6533 1.45762 9.58734 1.17017 8.40623C0.882723 
          7.22513 0.960803 5.98457 1.39407 4.84883C1.82734 3.71309 2.59536 2.73573 3.59644 2.04618C4.59751 
          1.35663 5.78442 0.987413 7 0.987413C8.21558 0.987413 9.40249 1.35663 10.4036 2.04618C11.4046 
          2.73573 12.1727 3.71309 12.6059 4.84883C13.0392 5.98457 13.1173 7.22513 12.8298 8.40623C12.5424 
          9.58734 11.903 10.6533 10.9963 11.4629Z"
         fill="#2A254B" />
   </symbol>
   <symbol width="15" height="14" viewBox="0 0 14 14" id="bucket">
      <path
         d="M5 14a1 1 0 1 0 0-2 1 1 0 0 0 0 2zM12 14a1 1 0 1 0 0-2 1 1 0 0 0 0 
         2zM14 2.5H2.91L2.5.4A.5.5 0 0 0 2 0H0v1h1.59l1.91 9.6a.5.5 0 0 0 
         .5.4h9v-1H4.41L4 8h9a.5.5 0 0 0 .5-.39l1-4.5a.5.5 0 0 0-.5-.61zM12.6 
         7H3.81l-.7-3.5h10.265L12.6 7z"
         fill="#2A254B" />
   </symbol>

   <symbol width="18" height="18" viewBox="0 0 18 18" id="linkedin">
      <path
         d="M16.65 0H1.35C0.6 0 0 0.6 0 1.275V16.65C0 17.325 0.6 17.925 
         1.35 17.925H16.65C17.4 17.925 18 17.325 18 16.65V1.275C18 0.6 
         17.4 0 16.65 0ZM5.325 15.3H2.7V6.75H5.325V15.3ZM4.05 5.55C3.225 
         5.55 2.475 4.875 2.475 3.975C2.475 3.075 3.15 2.4 4.05 2.4C4.875 
         2.4 5.625 3.075 5.625 3.975C5.625 4.875 4.875 5.55 4.05 5.55ZM15.375 
         15.225H12.75V11.025C12.75 10.05 12.75 8.7 11.325 8.7C9.9 8.7 9.75 
         9.825 9.75 10.875V15.15H7.125V6.75H9.6V7.875H9.675C10.05 7.2 10.95 
         6.45 12.225 6.45C14.925 6.45 15.45 8.25 15.45 10.575V15.225H15.375Z"
         fill="white" />
   </symbol>
   <symbol width="18" height="18" viewBox="0 0 18 18" id="facebook">
      <path
         d="M17.0025 0H0.9975C0.733553 0.00196251 0.480974 0.107686 0.29433 
         0.29433C0.107686 0.480974 0.00196251 0.733553 0 0.9975V17.0025C0.00196251 
         17.2664 0.107686 17.519 0.29433 17.7057C0.480974 17.8923 0.733553 17.998 
         0.9975 18H9.615V11.04H7.275V8.3175H9.615V6.315C9.615 3.99 11.0325 2.7225 
         13.1175 2.7225C13.815 2.7225 14.5125 2.7225 15.21 2.8275V5.25H13.7775C12.645 
         5.25 12.4275 5.79 12.4275 6.5775V8.31H15.1275L14.775 11.0325H12.4275V18H17.0025C17.2664 
         17.998 17.519 17.8923 17.7057 17.7057C17.8923 17.519 17.998 17.2664 18 17.0025V0.9975C17.998 
         0.733553 17.8923 0.480974 17.7057 0.29433C17.519 0.107686 17.2664 0.00196251 17.0025 0Z"
         fill="white" />
   </symbol>
   <symbol width="18" height="18" viewBox="0 0 18 18" id="instagram">
      <path
         d="M13.804 5.276a1.08 1.08 0 1 0 0-2.16 1.08 1.08 0 0 0 0 2.16zM9 4.378a4.622 
      4.622 0 1 0 0 9.244 4.622 4.622 0 0 0 0-9.244zM9 12a3 3 0 1 1 0-6 3 3 0 0 1 0 6z"
         fill="#fff" />
      <path
         d="M9 1.622c2.403 0 2.688.009 3.637.052.57.007 1.136.112 1.671.31a2.982 2.982 0 0 1 1.708 
         1.708c.198.535.303 1.1.31 1.671.043.95.052 1.234.052 3.637s-.009 2.688-.052 3.637a4.982 4.982 0 0 
         1-.31 1.671 2.98 2.98 0 0 1-1.708 1.708 4.98 4.98 0 0 1-1.671.31c-.95.043-1.234.052-3.637.052s-2.688-.009-3.637-.052a4.981 4.981 
         0 0 1-1.671-.31 2.981 2.981 0 0 1-1.708-1.708 4.982 4.982 0 0 1-.31-1.671c-.043-.95-.052-1.234-.052-3.637s.009-2.688.052-3.637c.007-.57.112-1.136.31-1.67a2.981 2.981 
         0 0 1 1.708-1.709 4.981 4.981 0 0 1 1.671-.31c.95-.043 1.234-.052 3.637-.052zM9 0C6.556 0 6.25.01 5.29.054a6.605 6.605 0 0 0-2.185.418A4.602 4.602 0 0 0 .472 
         3.106 6.605 6.605 0 0 0 .054 5.29C.01 6.25 0 6.556 0 9s.01 2.75.054 3.71c.015.747.157 1.486.418 2.185a4.602 4.602 0 0 0 2.633 2.633c.7.262 
         1.438.403 2.185.418C6.25 17.99 6.556 18 9 18s2.75-.01 3.71-.054a6.608 6.608 0 0 0 2.185-.419 4.602 4.602 0 0 0 
         2.633-2.632c.262-.7.403-1.438.418-2.185.044-.96.054-1.266.054-3.71s-.01-2.75-.054-3.71a6.606 6.606 0 0 0-.419-2.185A4.603 4.603 0 0 0 14.896.473 6.605 6.605 0 0 0 
         12.71.055C11.75.01 11.444 0 9 0z"
         fill="#fff" />
   </symbol>
   <symbol width="20" height="20" viewBox="0 0 20 20" id="skype">
      <path
         d="M18.9326 11.4102C19.0082 10.944 19.0459 10.4724 19.0451 10.0002C19.0451 
         7.60129 18.0922 5.30066 16.3959 3.60439C14.6996 1.90813 12.399 0.955175 10.0001 
         0.955175C9.52786 0.954442 9.05631 0.992065 8.59014 1.06768C7.54469 0.441429 6.31999 
         0.182406 5.11051 0.331741C3.90103 0.481075 2.77611 1.0302 1.91439 1.89193C1.05267 
         2.75365 0.503536 3.87857 0.354201 5.08805C0.204867 6.29753 0.463889 7.52223 1.09014 
         8.56768C1.00576 9.04064 0.960608 9.51977 0.955136 10.0002C0.955136 12.3991 1.90809 
         14.6997 3.60435 16.396C5.30062 18.0922 7.60125 19.0452 10.0001 19.0452C10.4724 
         19.0459 10.944 19.0083 11.4101 18.9327C12.4556 19.5589 13.6803 19.8179 14.8898 
         19.6686C16.0992 19.5193 17.2242 18.9701 18.0859 18.1084C18.9476 17.2467 19.4967 
         16.1218 19.6461 14.9123C19.7954 13.7028 19.5364 12.4781 18.9101 11.4327L18.9326 
         11.4102ZM14.2976 14.1102C13.8743 14.6955 13.2909 15.146 12.6176 15.4077C11.7869 
         15.7337 10.8998 15.8917 10.0076 15.8727C8.96916 15.9161 7.93603 15.7023 7.00014 
         15.2502C6.4545 14.9569 5.98659 14.5378 5.63514 14.0277C5.3132 13.5919 5.13023 13.0691 
         5.11013 12.5277C5.10934 12.3872 5.13758 12.2481 5.19308 12.119C5.24857 11.9899 5.33013 
         11.8737 5.43263 11.7777C5.6598 11.5843 5.95222 11.4851 6.25013 11.5002C6.4991 11.4955 
         6.74141 11.5807 6.93264 11.7402C7.14195 11.936 7.30359 12.1772 7.40514 12.4452C7.53525 
         12.7584 7.70137 13.0554 7.90014 13.3302C8.09824 13.5839 8.35584 13.7848 8.65014 13.9152C9.04988 
         14.0867 9.48305 14.1661 9.91763 14.1477C10.5366 14.1777 11.1497 14.0152 11.6726 13.6827C11.8733
         13.5651 12.0402 13.3977 12.1572 13.1966C12.2741 12.9956 12.3371 12.7677 12.3401 12.5352C12.3466 
         12.3723 12.3186 12.2099 12.2578 12.0587C12.1971 11.9075 12.105 11.7708 11.9876 11.6577C11.7206 
         11.4116 11.3994 11.2318 11.0501 11.1327C10.6601 11.0052 10.1426 10.8777 9.49014 10.7352C8.74075 
         10.5607 8.00989 10.3146 7.30764 10.0002C6.75506 9.7737 6.26781 9.41278 5.89014 8.95018C5.53193 
         8.47336 5.34677 7.88877 5.36513 7.29268C5.35908 6.68668 5.55428 6.0958 5.92014 5.61267C6.33803 
         5.09349 6.89454 4.7034 7.52514 4.48767C8.32249 4.22284 9.16037 4.10096 10.0001 4.12768C10.6572 
         4.11605 11.3122 4.20457 11.9426 4.39018C12.4374 4.53708 12.9021 4.77071 13.3151 5.08017C13.6402 
         5.3243 13.9109 5.63334 14.1101 5.98767C14.2723 6.2739 14.3599 6.59626 14.3651 6.92518C14.3642 7.06539 
         14.3352 7.20399 14.2798 7.3328C14.2244 7.46161 14.1437 7.57803 14.0426 7.67518C13.9406 7.78577 13.8164 
         7.87364 13.6781 7.93308C13.5398 7.99252 13.3906 8.02219 13.2401 8.02017C12.9989 8.03895 12.7597 7.9637 
         12.5726 7.81018C12.3758 7.62055 12.2112 7.40017 12.0851 7.15768C11.8994 6.77542 11.6303 6.43969 11.2976 
         6.17517C10.8611 5.90304 10.3473 5.78183 9.83513 5.83017C9.30945 5.80801 8.78855 5.93824 8.33514 6.20517C8.17043 
         6.29312 8.03135 6.42227 7.93144 6.58C7.83154 6.73774 7.77424 6.91869 7.76514 7.10518C7.7592 7.30894 7.82563 7.50822 
         7.95264 7.66768C8.10222 7.84099 8.28608 7.98144 8.49263 8.08017C8.7126 8.19396 8.94386 8.28446 9.18264 8.35018C9.42264 
         8.41768 9.81263 8.51517 10.3601 8.64268C11.0501 8.79268 11.6651 8.95768 12.2276 9.13768C12.7308 9.29096 13.2103 9.51307 
         13.6526 9.79768C14.0385 10.0417 14.3559 10.3798 14.5751 10.7802C14.798 11.2369 14.9013 11.7427 14.8751 12.2502C14.8819 
         12.9153 14.6799 13.5658 14.2976 14.1102Z"
         fill="white" />
   </symbol>
   <symbol width="18" height="14" viewBox="0 0 18 14" id="twitter">
      <path d="M5.94 13.705C7.20685 13.713 8.46268 13.4693 9.63465 
      12.9882C10.8066 12.507 11.8714 11.798 12.7672 10.9022C13.663 
      10.0064 14.3721 8.9416 14.8532 7.76964C15.3343 6.59767 15.578 
      5.34184 15.57 4.07499C15.57 3.92499 15.57 3.78249 15.57 3.63249C16.2267 
      3.15136 16.7951 2.56012 17.25 1.88499C16.6316 2.15544 15.9773 2.3348 
      15.3075 2.41749C16.0177 1.99432 16.5506 1.32824 16.8075 0.542488C16.1456
      0.939569 15.4199 1.21871 14.6625 1.36749C14.1524 0.824013 13.4775 0.46378 
      12.7421 0.342528C12.0067 0.221275 11.2518 0.345763 10.5943 0.696729C9.93678 
      1.04769 9.41324 1.60557 9.1047 2.28405C8.79617 2.96252 8.71983 3.72376 8.8875 
      4.44999C7.54202 4.38395 6.22553 4.03525 5.02377 3.42662C3.822 2.81798 2.7619 
      1.96305 1.9125 0.917488C1.48419 1.66087 1.35437 2.53923 1.54932 3.37473C1.74427 
      4.21023 2.24942 4.94043 2.9625 5.41749C2.43646 5.3972 1.92259 5.25332 1.4625 
      4.99749V5.03499C1.45783 5.81186 1.71954 6.56688 2.20403 7.17419C2.68851 7.78151 
      3.3665 8.20443 4.125 8.37249C3.63573 8.50408 3.12322 8.52458 2.625 8.43249C2.84459
      9.09503 3.26376 9.67342 3.82503 10.0883C4.38631 10.5032 5.06219 10.7344 5.76 
      10.75C4.56691 11.7104 3.08407 12.239 1.5525 12.25C1.28396 12.2422 1.01606 12.2197 
      0.75 12.1825C2.30022 13.1702 4.1019 13.6909 5.94 13.6825" fill="white"/>
   </symbol>
   <symbol width="22" height="22" viewBox="0 0 22 22" id="pinterest">
      <path d="M10.9998 0.5C8.56549 0.516578 6.21257 1.37849 4.34356 2.93828C2.47455 
      4.49807 1.20559 6.65882 0.753754 9.05089C0.301919 11.443 0.695288 13.9177
      1.86657 16.0518C3.03785 18.1858 4.91426 19.8466 7.1748 20.75C7.02287 19.7558 
      7.02287 18.7442 7.1748 17.75L8.4123 12.5C8.21646 12.0245 8.11949 11.5142 8.1273 
      11C8.1273 9.545 8.9748 8.45 10.0248 8.45C10.215 8.44714 10.4036 8.48543 10.5776 
      8.56224C10.7517 8.63906 10.9071 8.75258 11.0331 8.89504C11.1592 9.0375 11.253 
      9.20553 11.3081 9.38761C11.3632 9.5697 11.3783 9.76154 11.3523 9.95C11.3523 
      10.85 10.7823 12.2 10.4823 13.445C10.4177 13.6772 10.4101 13.9215 10.4599 14.1573C10.5098 
      14.3931 10.6157 14.6133 10.7688 14.7995C10.9218 14.9857 11.1175 15.1322 11.3391 
      15.2267C11.5608 15.3212 11.802 15.361 12.0423 15.3425C13.9023 15.3425 15.3423 
      13.37 15.3423 10.535C15.361 9.95891 15.2594 9.38525 15.044 8.85061C14.8287 8.31598 
      14.5042 7.8321 14.0914 7.42986C13.6786 7.02762 13.1864 6.71584 12.6464 6.51442C12.1063 
      6.31299 11.5302 6.22634 10.9548 6.26C10.3405 6.23361 9.72718 6.33216 9.15204 6.54966C8.5769 
      6.76717 8.05188 7.09912 7.60875 7.52542C7.16563 7.95172 6.81361 8.46351 6.57401 9.0298C6.33441 
      9.59609 6.21221 10.2051 6.2148 10.82C6.20646 11.6766 6.46895 12.5139 6.9648 13.2125C7.00086 
      13.2526 7.02654 13.3009 7.03962 13.3532C7.05269 13.4055 7.05275 13.4602 7.0398 13.5125C6.9573 
      13.8425 6.7773 14.5625 6.7473 14.705C6.7173 14.8475 6.5898 14.9375 6.3948 14.8475C5.0823 14.2325 
      4.2648 12.32 4.2648 10.775C4.2648 7.4675 6.6723 4.4225 11.2023 4.4225C14.8398 4.4225 17.6748 
      7.0175 17.6748 10.49C17.6748 14.105 15.4248 17.015 12.2223 17.015C11.7528 17.0313 11.2867 16.9301 
      10.8662 16.7206C10.4458 16.511 10.0844 16.1997 9.8148 15.815L9.1623 18.3125C8.84951 19.2831 8.41077 
      20.2085 7.8573 21.065C8.87714 21.3664 9.93644 21.513 10.9998 21.5C13.7846 21.5 16.4553 20.3938 18.4244
      18.4246C20.3936 16.4555 21.4998 13.7848 21.4998 11C21.4998 8.21523 20.3936 5.54451 18.4244 3.57538C16.4553 
      1.60625 13.7846 0.5 10.9998 0.5Z" fill="white"/>
   </symbol>
</svg>

   





   




   
   